<svg width="92" height="24" viewBox="0 0 92 24" fill="none" xmlns="http://www.w3.org/2000/svg">
<path fill-rule="evenodd" clip-rule="evenodd" d="M4 0C1.79086 0 0 1.79086 0 4V20C0 22.2091 1.79086 24 4 24H20C22.2091 24 24 22.2091 24 20V4C24 1.79086 22.2091 0 20 0H4ZM18.8549 7.91625C19.3471 7.91625 19.4583 8.1725 19.3471 8.525V8.52375C19.1738 9.33197 17.7327 11.4737 17.2862 12.1373C17.2013 12.2635 17.1523 12.3363 17.1549 12.3363C16.9802 12.6244 16.9168 12.7525 17.1549 13.0728C17.2411 13.1915 17.4242 13.3726 17.6334 13.5795C17.8478 13.7917 18.0897 14.031 18.2827 14.2578C18.9818 15.0584 19.5221 15.7309 19.6649 16.1953C19.7921 16.6597 19.5696 16.9 19.093 16.9H17.4568C17.023 16.9 16.7995 16.6489 16.3231 16.1139C16.1189 15.8845 15.8682 15.6029 15.5346 15.2666C14.5655 14.3216 14.1364 14.1938 13.8983 14.1938C13.5646 14.1938 13.4693 14.2737 13.4693 14.7541V16.2434C13.4693 16.6437 13.3424 16.8841 12.2936 16.8841C10.5621 16.8841 8.63988 15.8259 7.28957 13.8572C5.25613 10.9747 4.7002 8.79688 4.7002 8.36438C4.7002 8.12406 4.77957 7.9 5.25613 7.9H6.90832C7.32145 7.9 7.48145 8.07625 7.63895 8.5425C8.44895 10.8966 9.79926 12.9625 10.3552 12.9625C10.5633 12.9625 10.6571 12.8659 10.6571 12.3375V9.90187C10.6179 9.21 10.379 8.9085 10.2018 8.68493C10.0919 8.54628 10.0058 8.4376 10.0058 8.28438C10.0058 8.09219 10.1646 7.9 10.4189 7.9H12.9927C13.3424 7.9 13.4693 8.09219 13.4693 8.50844V11.7919C13.4693 12.1441 13.6124 12.2722 13.7236 12.2722C13.9302 12.2722 14.1049 12.1441 14.4861 11.7597C15.6618 10.4306 16.5036 8.38062 16.5036 8.38062C16.6149 8.14062 16.8055 7.91625 17.2183 7.91625H18.8549Z" fill="#F8F7F3"/>
<path fill-rule="evenodd" clip-rule="evenodd" d="M38 0C35.7909 0 34 1.79086 34 4V20C34 22.2091 35.7909 24 38 24H54C56.2091 24 58 22.2091 58 20V4C58 1.79086 56.2091 0 54 0H38ZM51.6192 7.87282C51.7207 6.72313 50.5067 7.19657 50.5067 7.19657C49.6077 7.56874 48.6799 7.94696 47.7427 8.32927C44.8475 9.51028 41.8568 10.7302 39.3088 11.9309C37.926 12.4381 38.7354 12.9453 38.7354 12.9453L40.9279 13.6219C41.9395 13.9263 42.4792 13.5878 42.4792 13.5878L47.201 10.3753C48.8873 9.22563 48.4826 10.1725 48.0779 10.5781L44.537 13.96C43.997 14.4334 44.267 14.8391 44.5032 15.0422C45.1719 15.6321 46.8163 16.7114 47.5355 17.1834C47.7231 17.3066 47.8478 17.3884 47.8757 17.4094C48.0445 17.5447 48.9551 18.1531 49.562 18.0181C50.1692 17.8828 50.2367 17.105 50.2367 17.105L51.046 11.7956C51.1672 10.8768 51.3059 9.99344 51.4169 9.2869C51.5224 8.61535 51.6029 8.10353 51.6192 7.87282Z" fill="#F8F7F3"/>
<path fill-rule="evenodd" clip-rule="evenodd" d="M76.725 17.6667C77.7833 18.2917 78.9917 18.625 80.225 18.625C84.0083 18.625 87.0917 15.55 87.075 11.7667C87.0784 10.8643 86.9026 9.97021 86.5578 9.13624C86.2131 8.30227 85.7062 7.54502 85.0667 6.90838C83.775 5.60838 82.05 4.89172 80.2167 4.89172C76.4333 4.89172 73.35 7.97505 73.35 11.7584C73.351 13.0494 73.7148 14.3142 74.4 15.4084L74.5667 15.6667L73.875 18.2L76.475 17.5167L76.725 17.6667ZM83.7173 13.3584C83.8412 13.4187 83.9406 13.4672 83.9917 13.4917C84.0329 13.5115 84.0708 13.529 84.1056 13.545C84.2468 13.6102 84.3365 13.6515 84.3833 13.725C84.4417 13.8167 84.4417 14.225 84.2667 14.7084C84.1 15.1917 83.275 15.6334 82.875 15.6917C82.5167 15.7417 82.0667 15.7667 81.575 15.6084C81.275 15.5167 80.8917 15.3917 80.4 15.175C78.4242 14.3226 77.0958 12.3809 76.8954 12.0881C76.8862 12.0746 76.8794 12.0646 76.875 12.0584L76.8734 12.0562C76.7673 11.9148 76.0333 10.9364 76.0333 9.92505C76.0333 8.98704 76.4873 8.48885 76.7016 8.25375C76.7195 8.23403 76.7358 8.21617 76.75 8.20005C76.9417 7.99172 77.1583 7.94172 77.3 7.94172H77.7C77.7145 7.94268 77.7296 7.94286 77.7453 7.94305C77.8654 7.9445 78.0193 7.94636 78.1667 8.30005C78.3333 8.71672 78.75 9.73338 78.8 9.83338C78.85 9.93338 78.8833 10.05 78.8167 10.1917C78.811 10.2031 78.8055 10.2142 78.8001 10.225C78.7425 10.3409 78.6998 10.4267 78.6083 10.5334C78.5764 10.5706 78.5428 10.6113 78.5088 10.6523C78.4364 10.7399 78.3624 10.8293 78.3 10.8917C78.1917 11 78.0917 11.1084 78.2083 11.3167C78.3333 11.525 78.7417 12.2 79.3583 12.75C80.0281 13.3486 80.6126 13.5998 80.8982 13.7226C80.9466 13.7434 80.9865 13.7606 81.0167 13.775C81.225 13.8834 81.35 13.8667 81.4667 13.725C81.5833 13.5917 81.975 13.125 82.1167 12.9167C82.2583 12.7167 82.3917 12.75 82.5833 12.8167C82.7218 12.8733 83.3354 13.1723 83.7173 13.3584Z" fill="#F8F7F3"/>
<path fill-rule="evenodd" clip-rule="evenodd" d="M72 0C69.7909 0 68 1.79086 68 4V20C68 22.2091 69.7909 24 72 24H88C90.2091 24 92 22.2091 92 20V4C92 1.79086 90.2091 0 88 0H72ZM83.3897 4.12509C84.3927 4.54144 85.3027 5.15332 86.0667 5.92505C87.625 7.48338 88.4833 9.55838 88.4833 11.7667C88.4833 16.3167 84.775 20.025 80.225 20.025C78.8417 20.025 77.4833 19.675 76.275 19.0167L71.9 20.1667L73.0667 15.8834C72.35 14.6334 71.9667 13.2167 71.9667 11.7584C71.9667 7.20838 75.675 3.50005 80.225 3.50005C81.3109 3.49627 82.3867 3.70875 83.3897 4.12509Z" fill="#F8F7F3"/>
</svg>
